<mxfile host="app.diagrams.net" agent="Mozilla/5.0 (Macintosh; Intel Mac OS X 10_15_7) AppleWebKit/537.36 (KHTML, like Gecko) Chrome/134.0.0.0 Safari/537.36" version="26.0.10">
  <diagram id="R2lEEEUBdFMjLlhIrx00" name="Page-1">
    <mxGraphModel dx="1804" dy="581" grid="1" gridSize="10" guides="1" tooltips="1" connect="1" arrows="1" fold="1" page="1" pageScale="1" pageWidth="850" pageHeight="1100" math="0" shadow="0" extFonts="Permanent Marker^https://fonts.googleapis.com/css?family=Permanent+Marker">
      <root>
        <mxCell id="0" />
        <mxCell id="1" parent="0" />
        <mxCell id="Ebmh9Xk1geTlfbSQMeQ6-151" style="rounded=0;orthogonalLoop=1;jettySize=auto;html=1;exitX=0.25;exitY=1;exitDx=0;exitDy=0;entryX=0.5;entryY=0;entryDx=0;entryDy=0;endArrow=none;startFill=0;" edge="1" parent="1" source="Ebmh9Xk1geTlfbSQMeQ6-1" target="Ebmh9Xk1geTlfbSQMeQ6-150">
          <mxGeometry relative="1" as="geometry" />
        </mxCell>
        <mxCell id="Ebmh9Xk1geTlfbSQMeQ6-153" value="N" style="edgeLabel;html=1;align=center;verticalAlign=middle;resizable=0;points=[];" vertex="1" connectable="0" parent="Ebmh9Xk1geTlfbSQMeQ6-151">
          <mxGeometry x="-0.1895" y="2" relative="1" as="geometry">
            <mxPoint as="offset" />
          </mxGeometry>
        </mxCell>
        <mxCell id="Ebmh9Xk1geTlfbSQMeQ6-1" value="用户信息" style="rounded=0;whiteSpace=wrap;html=1;" vertex="1" parent="1">
          <mxGeometry x="400" y="230" width="90" height="30" as="geometry" />
        </mxCell>
        <mxCell id="Ebmh9Xk1geTlfbSQMeQ6-10" style="rounded=0;orthogonalLoop=1;jettySize=auto;html=1;exitX=1;exitY=0.5;exitDx=0;exitDy=0;entryX=0;entryY=0;entryDx=0;entryDy=0;endArrow=none;startFill=0;" edge="1" parent="1" source="Ebmh9Xk1geTlfbSQMeQ6-2" target="Ebmh9Xk1geTlfbSQMeQ6-1">
          <mxGeometry relative="1" as="geometry" />
        </mxCell>
        <mxCell id="Ebmh9Xk1geTlfbSQMeQ6-2" value="主键id" style="ellipse;whiteSpace=wrap;html=1;" vertex="1" parent="1">
          <mxGeometry x="300" y="210" width="60" height="30" as="geometry" />
        </mxCell>
        <mxCell id="Ebmh9Xk1geTlfbSQMeQ6-3" value="用户名" style="ellipse;whiteSpace=wrap;html=1;" vertex="1" parent="1">
          <mxGeometry x="330" y="180" width="60" height="30" as="geometry" />
        </mxCell>
        <mxCell id="Ebmh9Xk1geTlfbSQMeQ6-13" style="rounded=0;orthogonalLoop=1;jettySize=auto;html=1;exitX=0.5;exitY=1;exitDx=0;exitDy=0;entryX=0.25;entryY=0;entryDx=0;entryDy=0;endArrow=none;startFill=0;" edge="1" parent="1" source="Ebmh9Xk1geTlfbSQMeQ6-4" target="Ebmh9Xk1geTlfbSQMeQ6-1">
          <mxGeometry relative="1" as="geometry" />
        </mxCell>
        <mxCell id="Ebmh9Xk1geTlfbSQMeQ6-4" value="密码" style="ellipse;whiteSpace=wrap;html=1;" vertex="1" parent="1">
          <mxGeometry x="380" y="160" width="60" height="30" as="geometry" />
        </mxCell>
        <mxCell id="Ebmh9Xk1geTlfbSQMeQ6-5" value="姓名" style="ellipse;whiteSpace=wrap;html=1;" vertex="1" parent="1">
          <mxGeometry x="440" y="150" width="60" height="30" as="geometry" />
        </mxCell>
        <mxCell id="Ebmh9Xk1geTlfbSQMeQ6-6" value="性别" style="ellipse;whiteSpace=wrap;html=1;" vertex="1" parent="1">
          <mxGeometry x="490" y="170" width="60" height="30" as="geometry" />
        </mxCell>
        <mxCell id="Ebmh9Xk1geTlfbSQMeQ6-7" value="联系地址&lt;span style=&quot;color: rgba(0, 0, 0, 0); font-family: monospace; font-size: 0px; text-align: start; text-wrap-mode: nowrap;&quot;&gt;%3CmxGraphModel%3E%3Croot%3E%3CmxCell%20id%3D%220%22%2F%3E%3CmxCell%20id%3D%221%22%20parent%3D%220%22%2F%3E%3CmxCell%20id%3D%222%22%20value%3D%22%E7%94%A8%E6%88%B7%E5%90%8D%22%20style%3D%22ellipse%3BwhiteSpace%3Dwrap%3Bhtml%3D1%3B%22%20vertex%3D%221%22%20parent%3D%221%22%3E%3CmxGeometry%20x%3D%22300%22%20y%3D%22120%22%20width%3D%2260%22%20height%3D%2230%22%20as%3D%22geometry%22%2F%3E%3C%2FmxCell%3E%3C%2Froot%3E%3C%2FmxGraphModel%3E&lt;/span&gt;" style="ellipse;whiteSpace=wrap;html=1;" vertex="1" parent="1">
          <mxGeometry x="430" y="320" width="60" height="30" as="geometry" />
        </mxCell>
        <mxCell id="Ebmh9Xk1geTlfbSQMeQ6-8" value="联系电话" style="ellipse;whiteSpace=wrap;html=1;" vertex="1" parent="1">
          <mxGeometry x="490" y="300" width="60" height="30" as="geometry" />
        </mxCell>
        <mxCell id="Ebmh9Xk1geTlfbSQMeQ6-9" value="邮箱" style="ellipse;whiteSpace=wrap;html=1;" vertex="1" parent="1">
          <mxGeometry x="340" y="320" width="60" height="30" as="geometry" />
        </mxCell>
        <mxCell id="Ebmh9Xk1geTlfbSQMeQ6-14" style="rounded=0;orthogonalLoop=1;jettySize=auto;html=1;exitX=1;exitY=1;exitDx=0;exitDy=0;entryX=0.122;entryY=0.033;entryDx=0;entryDy=0;entryPerimeter=0;endArrow=none;startFill=0;" edge="1" parent="1" source="Ebmh9Xk1geTlfbSQMeQ6-3" target="Ebmh9Xk1geTlfbSQMeQ6-1">
          <mxGeometry relative="1" as="geometry" />
        </mxCell>
        <mxCell id="Ebmh9Xk1geTlfbSQMeQ6-15" style="rounded=0;orthogonalLoop=1;jettySize=auto;html=1;exitX=0.5;exitY=1;exitDx=0;exitDy=0;entryX=0.5;entryY=0;entryDx=0;entryDy=0;endArrow=none;startFill=0;" edge="1" parent="1" source="Ebmh9Xk1geTlfbSQMeQ6-5" target="Ebmh9Xk1geTlfbSQMeQ6-1">
          <mxGeometry relative="1" as="geometry" />
        </mxCell>
        <mxCell id="Ebmh9Xk1geTlfbSQMeQ6-17" style="rounded=0;orthogonalLoop=1;jettySize=auto;html=1;exitX=0;exitY=1;exitDx=0;exitDy=0;entryX=0.578;entryY=0.033;entryDx=0;entryDy=0;entryPerimeter=0;endArrow=none;startFill=0;" edge="1" parent="1" source="Ebmh9Xk1geTlfbSQMeQ6-6" target="Ebmh9Xk1geTlfbSQMeQ6-1">
          <mxGeometry relative="1" as="geometry" />
        </mxCell>
        <mxCell id="Ebmh9Xk1geTlfbSQMeQ6-19" style="edgeStyle=orthogonalEdgeStyle;rounded=0;orthogonalLoop=1;jettySize=auto;html=1;exitX=0;exitY=0.5;exitDx=0;exitDy=0;entryX=1;entryY=0.5;entryDx=0;entryDy=0;endArrow=none;startFill=0;" edge="1" parent="1" source="Ebmh9Xk1geTlfbSQMeQ6-18" target="Ebmh9Xk1geTlfbSQMeQ6-1">
          <mxGeometry relative="1" as="geometry" />
        </mxCell>
        <mxCell id="Ebmh9Xk1geTlfbSQMeQ6-18" value="角色" style="ellipse;whiteSpace=wrap;html=1;" vertex="1" parent="1">
          <mxGeometry x="520" y="230" width="60" height="30" as="geometry" />
        </mxCell>
        <mxCell id="Ebmh9Xk1geTlfbSQMeQ6-20" style="rounded=0;orthogonalLoop=1;jettySize=auto;html=1;exitX=0;exitY=0;exitDx=0;exitDy=0;entryX=0.75;entryY=1;entryDx=0;entryDy=0;endArrow=none;startFill=0;" edge="1" parent="1" source="Ebmh9Xk1geTlfbSQMeQ6-8" target="Ebmh9Xk1geTlfbSQMeQ6-1">
          <mxGeometry relative="1" as="geometry" />
        </mxCell>
        <mxCell id="Ebmh9Xk1geTlfbSQMeQ6-21" style="rounded=0;orthogonalLoop=1;jettySize=auto;html=1;exitX=0.5;exitY=0;exitDx=0;exitDy=0;entryX=0.5;entryY=1;entryDx=0;entryDy=0;endArrow=none;startFill=0;" edge="1" parent="1" source="Ebmh9Xk1geTlfbSQMeQ6-7" target="Ebmh9Xk1geTlfbSQMeQ6-1">
          <mxGeometry relative="1" as="geometry" />
        </mxCell>
        <mxCell id="Ebmh9Xk1geTlfbSQMeQ6-22" style="rounded=0;orthogonalLoop=1;jettySize=auto;html=1;exitX=1;exitY=0;exitDx=0;exitDy=0;entryX=0.1;entryY=0.967;entryDx=0;entryDy=0;entryPerimeter=0;endArrow=none;startFill=0;" edge="1" parent="1" source="Ebmh9Xk1geTlfbSQMeQ6-9" target="Ebmh9Xk1geTlfbSQMeQ6-1">
          <mxGeometry relative="1" as="geometry" />
        </mxCell>
        <mxCell id="Ebmh9Xk1geTlfbSQMeQ6-23" value="趋势信息" style="rounded=0;whiteSpace=wrap;html=1;" vertex="1" parent="1">
          <mxGeometry x="743.91" y="240" width="90" height="30" as="geometry" />
        </mxCell>
        <mxCell id="Ebmh9Xk1geTlfbSQMeQ6-24" style="rounded=0;orthogonalLoop=1;jettySize=auto;html=1;exitX=0.5;exitY=0;exitDx=0;exitDy=0;entryX=0.367;entryY=0.967;entryDx=0;entryDy=0;entryPerimeter=0;endArrow=none;startFill=0;" edge="1" parent="1" source="Ebmh9Xk1geTlfbSQMeQ6-25" target="Ebmh9Xk1geTlfbSQMeQ6-23">
          <mxGeometry relative="1" as="geometry">
            <mxPoint x="773.91" y="290" as="targetPoint" />
          </mxGeometry>
        </mxCell>
        <mxCell id="Ebmh9Xk1geTlfbSQMeQ6-25" value="主键id" style="ellipse;whiteSpace=wrap;html=1;" vertex="1" parent="1">
          <mxGeometry x="663.91" y="320" width="60" height="30" as="geometry" />
        </mxCell>
        <mxCell id="Ebmh9Xk1geTlfbSQMeQ6-26" value="用户名" style="ellipse;whiteSpace=wrap;html=1;" vertex="1" parent="1">
          <mxGeometry x="673.91" y="190" width="60" height="30" as="geometry" />
        </mxCell>
        <mxCell id="Ebmh9Xk1geTlfbSQMeQ6-27" style="rounded=0;orthogonalLoop=1;jettySize=auto;html=1;exitX=0.5;exitY=1;exitDx=0;exitDy=0;entryX=0.25;entryY=0;entryDx=0;entryDy=0;endArrow=none;startFill=0;" edge="1" parent="1" source="Ebmh9Xk1geTlfbSQMeQ6-28" target="Ebmh9Xk1geTlfbSQMeQ6-23">
          <mxGeometry relative="1" as="geometry" />
        </mxCell>
        <mxCell id="Ebmh9Xk1geTlfbSQMeQ6-28" value="患者id" style="ellipse;whiteSpace=wrap;html=1;" vertex="1" parent="1">
          <mxGeometry x="723.91" y="170" width="60" height="30" as="geometry" />
        </mxCell>
        <mxCell id="Ebmh9Xk1geTlfbSQMeQ6-29" value="照片id" style="ellipse;whiteSpace=wrap;html=1;" vertex="1" parent="1">
          <mxGeometry x="783.91" y="160" width="60" height="30" as="geometry" />
        </mxCell>
        <mxCell id="Ebmh9Xk1geTlfbSQMeQ6-30" value="视盘直径变化" style="ellipse;whiteSpace=wrap;html=1;" vertex="1" parent="1">
          <mxGeometry x="833.91" y="180" width="110" height="30" as="geometry" />
        </mxCell>
        <mxCell id="Ebmh9Xk1geTlfbSQMeQ6-31" value="血管直径变化" style="ellipse;whiteSpace=wrap;html=1;" vertex="1" parent="1">
          <mxGeometry x="863.91" y="300" width="100" height="30" as="geometry" />
        </mxCell>
        <mxCell id="Ebmh9Xk1geTlfbSQMeQ6-32" value="杯盘比变化" style="ellipse;whiteSpace=wrap;html=1;" vertex="1" parent="1">
          <mxGeometry x="883.91" y="260" width="90" height="30" as="geometry" />
        </mxCell>
        <mxCell id="Ebmh9Xk1geTlfbSQMeQ6-33" value="血管曲率变化" style="ellipse;whiteSpace=wrap;html=1;" vertex="1" parent="1">
          <mxGeometry x="783.91" y="320" width="100" height="30" as="geometry" />
        </mxCell>
        <mxCell id="Ebmh9Xk1geTlfbSQMeQ6-34" style="rounded=0;orthogonalLoop=1;jettySize=auto;html=1;exitX=1;exitY=1;exitDx=0;exitDy=0;entryX=0.122;entryY=0.033;entryDx=0;entryDy=0;entryPerimeter=0;endArrow=none;startFill=0;" edge="1" parent="1" source="Ebmh9Xk1geTlfbSQMeQ6-26" target="Ebmh9Xk1geTlfbSQMeQ6-23">
          <mxGeometry relative="1" as="geometry" />
        </mxCell>
        <mxCell id="Ebmh9Xk1geTlfbSQMeQ6-35" style="rounded=0;orthogonalLoop=1;jettySize=auto;html=1;exitX=0.5;exitY=1;exitDx=0;exitDy=0;entryX=0.333;entryY=0.1;entryDx=0;entryDy=0;entryPerimeter=0;endArrow=none;startFill=0;" edge="1" parent="1" source="Ebmh9Xk1geTlfbSQMeQ6-29" target="Ebmh9Xk1geTlfbSQMeQ6-23">
          <mxGeometry relative="1" as="geometry" />
        </mxCell>
        <mxCell id="Ebmh9Xk1geTlfbSQMeQ6-36" style="rounded=0;orthogonalLoop=1;jettySize=auto;html=1;exitX=0;exitY=1;exitDx=0;exitDy=0;entryX=0.578;entryY=0.033;entryDx=0;entryDy=0;entryPerimeter=0;endArrow=none;startFill=0;" edge="1" parent="1" source="Ebmh9Xk1geTlfbSQMeQ6-30" target="Ebmh9Xk1geTlfbSQMeQ6-23">
          <mxGeometry relative="1" as="geometry" />
        </mxCell>
        <mxCell id="Ebmh9Xk1geTlfbSQMeQ6-37" style="rounded=0;orthogonalLoop=1;jettySize=auto;html=1;exitX=0;exitY=0.5;exitDx=0;exitDy=0;entryX=1;entryY=0.5;entryDx=0;entryDy=0;endArrow=none;startFill=0;" edge="1" parent="1" source="Ebmh9Xk1geTlfbSQMeQ6-38" target="Ebmh9Xk1geTlfbSQMeQ6-23">
          <mxGeometry relative="1" as="geometry" />
        </mxCell>
        <mxCell id="Ebmh9Xk1geTlfbSQMeQ6-38" value="视杯直径变化" style="ellipse;whiteSpace=wrap;html=1;" vertex="1" parent="1">
          <mxGeometry x="873.91" y="220" width="100" height="30" as="geometry" />
        </mxCell>
        <mxCell id="Ebmh9Xk1geTlfbSQMeQ6-39" style="rounded=0;orthogonalLoop=1;jettySize=auto;html=1;exitX=0;exitY=0.5;exitDx=0;exitDy=0;entryX=1;entryY=0.75;entryDx=0;entryDy=0;endArrow=none;startFill=0;" edge="1" parent="1" source="Ebmh9Xk1geTlfbSQMeQ6-32" target="Ebmh9Xk1geTlfbSQMeQ6-23">
          <mxGeometry relative="1" as="geometry" />
        </mxCell>
        <mxCell id="Ebmh9Xk1geTlfbSQMeQ6-40" style="rounded=0;orthogonalLoop=1;jettySize=auto;html=1;exitX=0;exitY=0;exitDx=0;exitDy=0;entryX=0.75;entryY=1;entryDx=0;entryDy=0;endArrow=none;startFill=0;" edge="1" parent="1" source="Ebmh9Xk1geTlfbSQMeQ6-31" target="Ebmh9Xk1geTlfbSQMeQ6-23">
          <mxGeometry relative="1" as="geometry" />
        </mxCell>
        <mxCell id="Ebmh9Xk1geTlfbSQMeQ6-41" style="rounded=0;orthogonalLoop=1;jettySize=auto;html=1;exitX=0.383;exitY=0.033;exitDx=0;exitDy=0;entryX=0.5;entryY=1;entryDx=0;entryDy=0;exitPerimeter=0;endArrow=none;startFill=0;" edge="1" parent="1" source="Ebmh9Xk1geTlfbSQMeQ6-33" target="Ebmh9Xk1geTlfbSQMeQ6-23">
          <mxGeometry relative="1" as="geometry" />
        </mxCell>
        <mxCell id="Ebmh9Xk1geTlfbSQMeQ6-42" value="历史记录" style="rounded=0;whiteSpace=wrap;html=1;" vertex="1" parent="1">
          <mxGeometry x="670" y="390" width="90" height="30" as="geometry" />
        </mxCell>
        <mxCell id="Ebmh9Xk1geTlfbSQMeQ6-43" style="rounded=0;orthogonalLoop=1;jettySize=auto;html=1;exitX=1;exitY=0.5;exitDx=0;exitDy=0;endArrow=none;startFill=0;" edge="1" parent="1" source="Ebmh9Xk1geTlfbSQMeQ6-44" target="Ebmh9Xk1geTlfbSQMeQ6-42">
          <mxGeometry relative="1" as="geometry">
            <mxPoint x="660" y="400" as="targetPoint" />
          </mxGeometry>
        </mxCell>
        <mxCell id="Ebmh9Xk1geTlfbSQMeQ6-44" value="主键id" style="ellipse;whiteSpace=wrap;html=1;" vertex="1" parent="1">
          <mxGeometry x="570" y="410" width="60" height="30" as="geometry" />
        </mxCell>
        <mxCell id="Ebmh9Xk1geTlfbSQMeQ6-50" value="患者id" style="ellipse;whiteSpace=wrap;html=1;" vertex="1" parent="1">
          <mxGeometry x="670" y="480" width="60" height="30" as="geometry" />
        </mxCell>
        <mxCell id="Ebmh9Xk1geTlfbSQMeQ6-51" value="上传时间" style="ellipse;whiteSpace=wrap;html=1;" vertex="1" parent="1">
          <mxGeometry x="750" y="460" width="60" height="30" as="geometry" />
        </mxCell>
        <mxCell id="Ebmh9Xk1geTlfbSQMeQ6-52" value="用户名" style="ellipse;whiteSpace=wrap;html=1;" vertex="1" parent="1">
          <mxGeometry x="600" y="460" width="60" height="30" as="geometry" />
        </mxCell>
        <mxCell id="Ebmh9Xk1geTlfbSQMeQ6-56" style="rounded=0;orthogonalLoop=1;jettySize=auto;html=1;exitX=0;exitY=0.5;exitDx=0;exitDy=0;entryX=1;entryY=0.5;entryDx=0;entryDy=0;endArrow=none;startFill=0;" edge="1" parent="1" source="Ebmh9Xk1geTlfbSQMeQ6-57" target="Ebmh9Xk1geTlfbSQMeQ6-42">
          <mxGeometry relative="1" as="geometry" />
        </mxCell>
        <mxCell id="Ebmh9Xk1geTlfbSQMeQ6-57" value="病变结果" style="ellipse;whiteSpace=wrap;html=1;" vertex="1" parent="1">
          <mxGeometry x="800" y="430" width="60" height="30" as="geometry" />
        </mxCell>
        <mxCell id="Ebmh9Xk1geTlfbSQMeQ6-58" style="rounded=0;orthogonalLoop=1;jettySize=auto;html=1;exitX=0.5;exitY=0;exitDx=0;exitDy=0;entryX=0.75;entryY=1;entryDx=0;entryDy=0;endArrow=none;startFill=0;" edge="1" parent="1" source="Ebmh9Xk1geTlfbSQMeQ6-51" target="Ebmh9Xk1geTlfbSQMeQ6-42">
          <mxGeometry relative="1" as="geometry" />
        </mxCell>
        <mxCell id="Ebmh9Xk1geTlfbSQMeQ6-59" style="rounded=0;orthogonalLoop=1;jettySize=auto;html=1;exitX=0.5;exitY=0;exitDx=0;exitDy=0;entryX=0.5;entryY=1;entryDx=0;entryDy=0;endArrow=none;startFill=0;" edge="1" parent="1" source="Ebmh9Xk1geTlfbSQMeQ6-50" target="Ebmh9Xk1geTlfbSQMeQ6-42">
          <mxGeometry relative="1" as="geometry" />
        </mxCell>
        <mxCell id="Ebmh9Xk1geTlfbSQMeQ6-60" style="rounded=0;orthogonalLoop=1;jettySize=auto;html=1;exitX=0.5;exitY=0;exitDx=0;exitDy=0;entryX=0.1;entryY=0.967;entryDx=0;entryDy=0;entryPerimeter=0;endArrow=none;startFill=0;" edge="1" parent="1" source="Ebmh9Xk1geTlfbSQMeQ6-52" target="Ebmh9Xk1geTlfbSQMeQ6-42">
          <mxGeometry relative="1" as="geometry" />
        </mxCell>
        <mxCell id="Ebmh9Xk1geTlfbSQMeQ6-63" style="rounded=0;orthogonalLoop=1;jettySize=auto;html=1;exitX=1;exitY=1;exitDx=0;exitDy=0;entryX=0.25;entryY=0;entryDx=0;entryDy=0;endArrow=none;endFill=0;startFill=0;" edge="1" parent="1" source="Ebmh9Xk1geTlfbSQMeQ6-62" target="Ebmh9Xk1geTlfbSQMeQ6-42">
          <mxGeometry relative="1" as="geometry" />
        </mxCell>
        <mxCell id="Ebmh9Xk1geTlfbSQMeQ6-64" value="N" style="edgeLabel;html=1;align=center;verticalAlign=middle;resizable=0;points=[];" vertex="1" connectable="0" parent="Ebmh9Xk1geTlfbSQMeQ6-63">
          <mxGeometry x="0.0553" y="3" relative="1" as="geometry">
            <mxPoint as="offset" />
          </mxGeometry>
        </mxCell>
        <mxCell id="Ebmh9Xk1geTlfbSQMeQ6-65" style="rounded=0;orthogonalLoop=1;jettySize=auto;html=1;exitX=0;exitY=0;exitDx=0;exitDy=0;entryX=1;entryY=1;entryDx=0;entryDy=0;endArrow=none;startFill=0;" edge="1" parent="1" source="Ebmh9Xk1geTlfbSQMeQ6-62" target="Ebmh9Xk1geTlfbSQMeQ6-1">
          <mxGeometry relative="1" as="geometry" />
        </mxCell>
        <mxCell id="Ebmh9Xk1geTlfbSQMeQ6-66" value="1" style="edgeLabel;html=1;align=center;verticalAlign=middle;resizable=0;points=[];" vertex="1" connectable="0" parent="Ebmh9Xk1geTlfbSQMeQ6-65">
          <mxGeometry x="-0.2224" y="-3" relative="1" as="geometry">
            <mxPoint as="offset" />
          </mxGeometry>
        </mxCell>
        <mxCell id="Ebmh9Xk1geTlfbSQMeQ6-62" value="归属" style="rhombus;whiteSpace=wrap;html=1;" vertex="1" parent="1">
          <mxGeometry x="600" y="300" width="50" height="50" as="geometry" />
        </mxCell>
        <mxCell id="Ebmh9Xk1geTlfbSQMeQ6-68" style="rounded=0;orthogonalLoop=1;jettySize=auto;html=1;exitX=0.5;exitY=0;exitDx=0;exitDy=0;endArrow=none;startFill=0;" edge="1" parent="1" source="Ebmh9Xk1geTlfbSQMeQ6-67" target="Ebmh9Xk1geTlfbSQMeQ6-23">
          <mxGeometry relative="1" as="geometry" />
        </mxCell>
        <mxCell id="Ebmh9Xk1geTlfbSQMeQ6-67" value="病变面积变化" style="ellipse;whiteSpace=wrap;html=1;" vertex="1" parent="1">
          <mxGeometry x="703.91" y="350" width="100" height="30" as="geometry" />
        </mxCell>
        <mxCell id="Ebmh9Xk1geTlfbSQMeQ6-70" style="rounded=0;orthogonalLoop=1;jettySize=auto;html=1;exitX=1;exitY=0.5;exitDx=0;exitDy=0;endArrow=none;startFill=0;entryX=0;entryY=0.5;entryDx=0;entryDy=0;" edge="1" parent="1" source="Ebmh9Xk1geTlfbSQMeQ6-69" target="Ebmh9Xk1geTlfbSQMeQ6-23">
          <mxGeometry relative="1" as="geometry" />
        </mxCell>
        <mxCell id="Ebmh9Xk1geTlfbSQMeQ6-72" value="N" style="edgeLabel;html=1;align=center;verticalAlign=middle;resizable=0;points=[];" vertex="1" connectable="0" parent="Ebmh9Xk1geTlfbSQMeQ6-70">
          <mxGeometry x="-0.1839" y="-1" relative="1" as="geometry">
            <mxPoint as="offset" />
          </mxGeometry>
        </mxCell>
        <mxCell id="Ebmh9Xk1geTlfbSQMeQ6-71" style="rounded=0;orthogonalLoop=1;jettySize=auto;html=1;exitX=0;exitY=0.5;exitDx=0;exitDy=0;entryX=1;entryY=0;entryDx=0;entryDy=0;endArrow=none;startFill=0;" edge="1" parent="1" source="Ebmh9Xk1geTlfbSQMeQ6-69" target="Ebmh9Xk1geTlfbSQMeQ6-1">
          <mxGeometry relative="1" as="geometry" />
        </mxCell>
        <mxCell id="Ebmh9Xk1geTlfbSQMeQ6-73" value="1" style="edgeLabel;html=1;align=center;verticalAlign=middle;resizable=0;points=[];" vertex="1" connectable="0" parent="Ebmh9Xk1geTlfbSQMeQ6-71">
          <mxGeometry x="-0.1638" relative="1" as="geometry">
            <mxPoint x="1" as="offset" />
          </mxGeometry>
        </mxCell>
        <mxCell id="Ebmh9Xk1geTlfbSQMeQ6-69" value="归属" style="rhombus;whiteSpace=wrap;html=1;" vertex="1" parent="1">
          <mxGeometry x="590" y="170" width="50" height="50" as="geometry" />
        </mxCell>
        <mxCell id="Ebmh9Xk1geTlfbSQMeQ6-125" style="rounded=0;orthogonalLoop=1;jettySize=auto;html=1;exitX=1;exitY=0.5;exitDx=0;exitDy=0;entryX=0;entryY=0.5;entryDx=0;entryDy=0;endArrow=none;startFill=0;" edge="1" parent="1" source="Ebmh9Xk1geTlfbSQMeQ6-96" target="Ebmh9Xk1geTlfbSQMeQ6-123">
          <mxGeometry relative="1" as="geometry" />
        </mxCell>
        <mxCell id="Ebmh9Xk1geTlfbSQMeQ6-127" value="N" style="edgeLabel;html=1;align=center;verticalAlign=middle;resizable=0;points=[];" vertex="1" connectable="0" parent="Ebmh9Xk1geTlfbSQMeQ6-125">
          <mxGeometry x="-0.1571" y="2" relative="1" as="geometry">
            <mxPoint as="offset" />
          </mxGeometry>
        </mxCell>
        <mxCell id="Ebmh9Xk1geTlfbSQMeQ6-96" value="分割信息" style="rounded=0;whiteSpace=wrap;html=1;" vertex="1" parent="1">
          <mxGeometry x="50" y="267.05" width="90" height="30" as="geometry" />
        </mxCell>
        <mxCell id="Ebmh9Xk1geTlfbSQMeQ6-97" style="rounded=0;orthogonalLoop=1;jettySize=auto;html=1;exitX=1;exitY=0.5;exitDx=0;exitDy=0;entryX=0;entryY=0.5;entryDx=0;entryDy=0;endArrow=none;startFill=0;" edge="1" parent="1" source="Ebmh9Xk1geTlfbSQMeQ6-98" target="Ebmh9Xk1geTlfbSQMeQ6-96">
          <mxGeometry relative="1" as="geometry">
            <mxPoint x="80" y="317.05" as="targetPoint" />
          </mxGeometry>
        </mxCell>
        <mxCell id="Ebmh9Xk1geTlfbSQMeQ6-98" value="主键id" style="ellipse;whiteSpace=wrap;html=1;" vertex="1" parent="1">
          <mxGeometry x="-71.97999999999999" y="250" width="60" height="30" as="geometry" />
        </mxCell>
        <mxCell id="Ebmh9Xk1geTlfbSQMeQ6-99" value="用户名" style="ellipse;whiteSpace=wrap;html=1;" vertex="1" parent="1">
          <mxGeometry x="-20" y="217.05" width="60" height="30" as="geometry" />
        </mxCell>
        <mxCell id="Ebmh9Xk1geTlfbSQMeQ6-100" style="rounded=0;orthogonalLoop=1;jettySize=auto;html=1;exitX=0.5;exitY=1;exitDx=0;exitDy=0;entryX=0.25;entryY=0;entryDx=0;entryDy=0;endArrow=none;startFill=0;" edge="1" parent="1" source="Ebmh9Xk1geTlfbSQMeQ6-101" target="Ebmh9Xk1geTlfbSQMeQ6-96">
          <mxGeometry relative="1" as="geometry" />
        </mxCell>
        <mxCell id="Ebmh9Xk1geTlfbSQMeQ6-101" value="患者id" style="ellipse;whiteSpace=wrap;html=1;" vertex="1" parent="1">
          <mxGeometry x="30" y="197.05" width="60" height="30" as="geometry" />
        </mxCell>
        <mxCell id="Ebmh9Xk1geTlfbSQMeQ6-102" value="照片id" style="ellipse;whiteSpace=wrap;html=1;" vertex="1" parent="1">
          <mxGeometry x="90" y="187.05" width="60" height="30" as="geometry" />
        </mxCell>
        <mxCell id="Ebmh9Xk1geTlfbSQMeQ6-103" value="视盘直径" style="ellipse;whiteSpace=wrap;html=1;" vertex="1" parent="1">
          <mxGeometry x="140" y="207.05" width="110" height="30" as="geometry" />
        </mxCell>
        <mxCell id="Ebmh9Xk1geTlfbSQMeQ6-104" value="血管直径" style="ellipse;whiteSpace=wrap;html=1;" vertex="1" parent="1">
          <mxGeometry x="-111.97999999999999" y="330" width="100" height="30" as="geometry" />
        </mxCell>
        <mxCell id="Ebmh9Xk1geTlfbSQMeQ6-105" value="杯盘比" style="ellipse;whiteSpace=wrap;html=1;" vertex="1" parent="1">
          <mxGeometry x="-71.97999999999999" y="360" width="90" height="30" as="geometry" />
        </mxCell>
        <mxCell id="Ebmh9Xk1geTlfbSQMeQ6-106" value="血管曲率" style="ellipse;whiteSpace=wrap;html=1;" vertex="1" parent="1">
          <mxGeometry x="-130" y="290" width="100" height="30" as="geometry" />
        </mxCell>
        <mxCell id="Ebmh9Xk1geTlfbSQMeQ6-107" style="rounded=0;orthogonalLoop=1;jettySize=auto;html=1;exitX=1;exitY=1;exitDx=0;exitDy=0;entryX=0.122;entryY=0.033;entryDx=0;entryDy=0;entryPerimeter=0;endArrow=none;startFill=0;" edge="1" parent="1" source="Ebmh9Xk1geTlfbSQMeQ6-99" target="Ebmh9Xk1geTlfbSQMeQ6-96">
          <mxGeometry relative="1" as="geometry" />
        </mxCell>
        <mxCell id="Ebmh9Xk1geTlfbSQMeQ6-108" style="rounded=0;orthogonalLoop=1;jettySize=auto;html=1;exitX=0.5;exitY=1;exitDx=0;exitDy=0;endArrow=none;startFill=0;entryX=0.35;entryY=0.065;entryDx=0;entryDy=0;entryPerimeter=0;" edge="1" parent="1" source="Ebmh9Xk1geTlfbSQMeQ6-102" target="Ebmh9Xk1geTlfbSQMeQ6-96">
          <mxGeometry relative="1" as="geometry">
            <mxPoint x="90" y="270" as="targetPoint" />
          </mxGeometry>
        </mxCell>
        <mxCell id="Ebmh9Xk1geTlfbSQMeQ6-109" style="rounded=0;orthogonalLoop=1;jettySize=auto;html=1;exitX=0;exitY=1;exitDx=0;exitDy=0;entryX=0.578;entryY=0.033;entryDx=0;entryDy=0;entryPerimeter=0;endArrow=none;startFill=0;" edge="1" parent="1" source="Ebmh9Xk1geTlfbSQMeQ6-103" target="Ebmh9Xk1geTlfbSQMeQ6-96">
          <mxGeometry relative="1" as="geometry" />
        </mxCell>
        <mxCell id="Ebmh9Xk1geTlfbSQMeQ6-110" style="rounded=0;orthogonalLoop=1;jettySize=auto;html=1;exitX=0.5;exitY=0;exitDx=0;exitDy=0;entryX=1;entryY=1;entryDx=0;entryDy=0;endArrow=none;startFill=0;" edge="1" parent="1" source="Ebmh9Xk1geTlfbSQMeQ6-111" target="Ebmh9Xk1geTlfbSQMeQ6-96">
          <mxGeometry relative="1" as="geometry" />
        </mxCell>
        <mxCell id="Ebmh9Xk1geTlfbSQMeQ6-111" value="视杯直径" style="ellipse;whiteSpace=wrap;html=1;" vertex="1" parent="1">
          <mxGeometry x="170" y="340" width="100" height="30" as="geometry" />
        </mxCell>
        <mxCell id="Ebmh9Xk1geTlfbSQMeQ6-112" style="rounded=0;orthogonalLoop=1;jettySize=auto;html=1;exitX=0.5;exitY=0;exitDx=0;exitDy=0;entryX=0.25;entryY=1;entryDx=0;entryDy=0;endArrow=none;startFill=0;" edge="1" parent="1" source="Ebmh9Xk1geTlfbSQMeQ6-105" target="Ebmh9Xk1geTlfbSQMeQ6-96">
          <mxGeometry relative="1" as="geometry" />
        </mxCell>
        <mxCell id="Ebmh9Xk1geTlfbSQMeQ6-113" style="rounded=0;orthogonalLoop=1;jettySize=auto;html=1;exitX=0.5;exitY=0;exitDx=0;exitDy=0;entryX=0.139;entryY=0.998;entryDx=0;entryDy=0;entryPerimeter=0;endArrow=none;startFill=0;" edge="1" parent="1" source="Ebmh9Xk1geTlfbSQMeQ6-104" target="Ebmh9Xk1geTlfbSQMeQ6-96">
          <mxGeometry relative="1" as="geometry" />
        </mxCell>
        <mxCell id="Ebmh9Xk1geTlfbSQMeQ6-114" style="rounded=0;orthogonalLoop=1;jettySize=auto;html=1;exitX=1;exitY=0.5;exitDx=0;exitDy=0;entryX=0;entryY=0.75;entryDx=0;entryDy=0;endArrow=none;startFill=0;" edge="1" parent="1" source="Ebmh9Xk1geTlfbSQMeQ6-106" target="Ebmh9Xk1geTlfbSQMeQ6-96">
          <mxGeometry relative="1" as="geometry" />
        </mxCell>
        <mxCell id="Ebmh9Xk1geTlfbSQMeQ6-120" style="rounded=0;orthogonalLoop=1;jettySize=auto;html=1;exitX=0.5;exitY=0;exitDx=0;exitDy=0;entryX=0.5;entryY=1;entryDx=0;entryDy=0;endArrow=none;startFill=0;" edge="1" parent="1" source="Ebmh9Xk1geTlfbSQMeQ6-118" target="Ebmh9Xk1geTlfbSQMeQ6-96">
          <mxGeometry relative="1" as="geometry" />
        </mxCell>
        <mxCell id="Ebmh9Xk1geTlfbSQMeQ6-118" value="异常区域比例" style="ellipse;whiteSpace=wrap;html=1;" vertex="1" parent="1">
          <mxGeometry y="380" width="100" height="30" as="geometry" />
        </mxCell>
        <mxCell id="Ebmh9Xk1geTlfbSQMeQ6-121" style="rounded=0;orthogonalLoop=1;jettySize=auto;html=1;exitX=0.5;exitY=0;exitDx=0;exitDy=0;endArrow=none;startFill=0;" edge="1" parent="1" source="Ebmh9Xk1geTlfbSQMeQ6-119" target="Ebmh9Xk1geTlfbSQMeQ6-96">
          <mxGeometry relative="1" as="geometry" />
        </mxCell>
        <mxCell id="Ebmh9Xk1geTlfbSQMeQ6-119" value="异常区域面积" style="ellipse;whiteSpace=wrap;html=1;" vertex="1" parent="1">
          <mxGeometry x="90" y="360" width="100" height="30" as="geometry" />
        </mxCell>
        <mxCell id="Ebmh9Xk1geTlfbSQMeQ6-124" style="rounded=0;orthogonalLoop=1;jettySize=auto;html=1;exitX=1;exitY=0.5;exitDx=0;exitDy=0;entryX=0;entryY=0.5;entryDx=0;entryDy=0;endArrow=none;startFill=0;" edge="1" parent="1" source="Ebmh9Xk1geTlfbSQMeQ6-123" target="Ebmh9Xk1geTlfbSQMeQ6-1">
          <mxGeometry relative="1" as="geometry" />
        </mxCell>
        <mxCell id="Ebmh9Xk1geTlfbSQMeQ6-126" value="1" style="edgeLabel;html=1;align=center;verticalAlign=middle;resizable=0;points=[];" vertex="1" connectable="0" parent="Ebmh9Xk1geTlfbSQMeQ6-124">
          <mxGeometry x="-0.2169" relative="1" as="geometry">
            <mxPoint as="offset" />
          </mxGeometry>
        </mxCell>
        <mxCell id="Ebmh9Xk1geTlfbSQMeQ6-123" value="归属" style="rhombus;whiteSpace=wrap;html=1;" vertex="1" parent="1">
          <mxGeometry x="240" y="250" width="50" height="50" as="geometry" />
        </mxCell>
        <mxCell id="Ebmh9Xk1geTlfbSQMeQ6-128" value="论坛信息" style="rounded=0;whiteSpace=wrap;html=1;" vertex="1" parent="1">
          <mxGeometry x="380" y="449.54" width="90" height="30" as="geometry" />
        </mxCell>
        <mxCell id="Ebmh9Xk1geTlfbSQMeQ6-129" style="rounded=0;orthogonalLoop=1;jettySize=auto;html=1;exitX=0.5;exitY=0;exitDx=0;exitDy=0;entryX=0;entryY=1;entryDx=0;entryDy=0;endArrow=none;startFill=0;" edge="1" parent="1" source="Ebmh9Xk1geTlfbSQMeQ6-130" target="Ebmh9Xk1geTlfbSQMeQ6-128">
          <mxGeometry relative="1" as="geometry" />
        </mxCell>
        <mxCell id="Ebmh9Xk1geTlfbSQMeQ6-130" value="主键id" style="ellipse;whiteSpace=wrap;html=1;" vertex="1" parent="1">
          <mxGeometry x="330" y="529.54" width="60" height="30" as="geometry" />
        </mxCell>
        <mxCell id="Ebmh9Xk1geTlfbSQMeQ6-131" value="用户名" style="ellipse;whiteSpace=wrap;html=1;" vertex="1" parent="1">
          <mxGeometry x="290" y="409.54" width="60" height="30" as="geometry" />
        </mxCell>
        <mxCell id="Ebmh9Xk1geTlfbSQMeQ6-132" style="rounded=0;orthogonalLoop=1;jettySize=auto;html=1;exitX=0.5;exitY=1;exitDx=0;exitDy=0;entryX=0.25;entryY=1;entryDx=0;entryDy=0;endArrow=none;startFill=0;" edge="1" parent="1" source="Ebmh9Xk1geTlfbSQMeQ6-133" target="Ebmh9Xk1geTlfbSQMeQ6-128">
          <mxGeometry relative="1" as="geometry" />
        </mxCell>
        <mxCell id="Ebmh9Xk1geTlfbSQMeQ6-133" value="帖子状态" style="ellipse;whiteSpace=wrap;html=1;" vertex="1" parent="1">
          <mxGeometry x="380" y="549.54" width="60" height="30" as="geometry" />
        </mxCell>
        <mxCell id="Ebmh9Xk1geTlfbSQMeQ6-134" value="帖子id" style="ellipse;whiteSpace=wrap;html=1;" vertex="1" parent="1">
          <mxGeometry x="530" y="439.54" width="60" height="30" as="geometry" />
        </mxCell>
        <mxCell id="Ebmh9Xk1geTlfbSQMeQ6-135" value="帖子标题" style="ellipse;whiteSpace=wrap;html=1;" vertex="1" parent="1">
          <mxGeometry x="530" y="479.54" width="60" height="30" as="geometry" />
        </mxCell>
        <mxCell id="Ebmh9Xk1geTlfbSQMeQ6-136" value="帖子内容" style="ellipse;whiteSpace=wrap;html=1;" vertex="1" parent="1">
          <mxGeometry x="440" y="539.54" width="60" height="30" as="geometry" />
        </mxCell>
        <mxCell id="Ebmh9Xk1geTlfbSQMeQ6-137" value="发表时间" style="ellipse;whiteSpace=wrap;html=1;" vertex="1" parent="1">
          <mxGeometry x="490" y="509.54" width="60" height="30" as="geometry" />
        </mxCell>
        <mxCell id="Ebmh9Xk1geTlfbSQMeQ6-139" style="rounded=0;orthogonalLoop=1;jettySize=auto;html=1;exitX=1;exitY=1;exitDx=0;exitDy=0;entryX=0;entryY=0;entryDx=0;entryDy=0;endArrow=none;startFill=0;" edge="1" parent="1" source="Ebmh9Xk1geTlfbSQMeQ6-131" target="Ebmh9Xk1geTlfbSQMeQ6-128">
          <mxGeometry relative="1" as="geometry" />
        </mxCell>
        <mxCell id="Ebmh9Xk1geTlfbSQMeQ6-140" style="rounded=0;orthogonalLoop=1;jettySize=auto;html=1;exitX=0;exitY=0.5;exitDx=0;exitDy=0;entryX=1;entryY=0.25;entryDx=0;entryDy=0;endArrow=none;startFill=0;" edge="1" parent="1" source="Ebmh9Xk1geTlfbSQMeQ6-134" target="Ebmh9Xk1geTlfbSQMeQ6-128">
          <mxGeometry relative="1" as="geometry" />
        </mxCell>
        <mxCell id="Ebmh9Xk1geTlfbSQMeQ6-141" style="rounded=0;orthogonalLoop=1;jettySize=auto;html=1;exitX=0;exitY=0.5;exitDx=0;exitDy=0;entryX=1;entryY=0.75;entryDx=0;entryDy=0;endArrow=none;startFill=0;" edge="1" parent="1" source="Ebmh9Xk1geTlfbSQMeQ6-135" target="Ebmh9Xk1geTlfbSQMeQ6-128">
          <mxGeometry relative="1" as="geometry" />
        </mxCell>
        <mxCell id="Ebmh9Xk1geTlfbSQMeQ6-143" style="rounded=0;orthogonalLoop=1;jettySize=auto;html=1;exitX=0;exitY=0;exitDx=0;exitDy=0;entryX=0.75;entryY=1;entryDx=0;entryDy=0;endArrow=none;startFill=0;" edge="1" parent="1" source="Ebmh9Xk1geTlfbSQMeQ6-137" target="Ebmh9Xk1geTlfbSQMeQ6-128">
          <mxGeometry relative="1" as="geometry" />
        </mxCell>
        <mxCell id="Ebmh9Xk1geTlfbSQMeQ6-144" style="rounded=0;orthogonalLoop=1;jettySize=auto;html=1;exitX=0.5;exitY=0;exitDx=0;exitDy=0;entryX=0.5;entryY=1;entryDx=0;entryDy=0;endArrow=none;startFill=0;" edge="1" parent="1" source="Ebmh9Xk1geTlfbSQMeQ6-136" target="Ebmh9Xk1geTlfbSQMeQ6-128">
          <mxGeometry relative="1" as="geometry" />
        </mxCell>
        <mxCell id="Ebmh9Xk1geTlfbSQMeQ6-152" style="rounded=0;orthogonalLoop=1;jettySize=auto;html=1;exitX=0.5;exitY=1;exitDx=0;exitDy=0;entryX=0.5;entryY=0;entryDx=0;entryDy=0;endArrow=none;startFill=0;" edge="1" parent="1" source="Ebmh9Xk1geTlfbSQMeQ6-150" target="Ebmh9Xk1geTlfbSQMeQ6-128">
          <mxGeometry relative="1" as="geometry" />
        </mxCell>
        <mxCell id="Ebmh9Xk1geTlfbSQMeQ6-154" value="M" style="edgeLabel;html=1;align=center;verticalAlign=middle;resizable=0;points=[];" vertex="1" connectable="0" parent="Ebmh9Xk1geTlfbSQMeQ6-152">
          <mxGeometry x="0.0219" y="4" relative="1" as="geometry">
            <mxPoint y="1" as="offset" />
          </mxGeometry>
        </mxCell>
        <mxCell id="Ebmh9Xk1geTlfbSQMeQ6-150" value="归属" style="rhombus;whiteSpace=wrap;html=1;" vertex="1" parent="1">
          <mxGeometry x="385" y="359.54" width="50" height="50" as="geometry" />
        </mxCell>
        <mxCell id="Ebmh9Xk1geTlfbSQMeQ6-155" value="论坛评论信息" style="rounded=0;whiteSpace=wrap;html=1;" vertex="1" parent="1">
          <mxGeometry x="60" y="484.31" width="90" height="30" as="geometry" />
        </mxCell>
        <mxCell id="Ebmh9Xk1geTlfbSQMeQ6-156" style="rounded=0;orthogonalLoop=1;jettySize=auto;html=1;exitX=1;exitY=0.5;exitDx=0;exitDy=0;entryX=0;entryY=0.5;entryDx=0;entryDy=0;endArrow=none;startFill=0;" edge="1" parent="1" source="Ebmh9Xk1geTlfbSQMeQ6-157" target="Ebmh9Xk1geTlfbSQMeQ6-155">
          <mxGeometry relative="1" as="geometry" />
        </mxCell>
        <mxCell id="Ebmh9Xk1geTlfbSQMeQ6-157" value="主键id" style="ellipse;whiteSpace=wrap;html=1;" vertex="1" parent="1">
          <mxGeometry x="-56.98" y="489.99999999999994" width="60" height="30" as="geometry" />
        </mxCell>
        <mxCell id="Ebmh9Xk1geTlfbSQMeQ6-158" value="用户名" style="ellipse;whiteSpace=wrap;html=1;" vertex="1" parent="1">
          <mxGeometry x="-30" y="444.31" width="60" height="30" as="geometry" />
        </mxCell>
        <mxCell id="Ebmh9Xk1geTlfbSQMeQ6-159" style="rounded=0;orthogonalLoop=1;jettySize=auto;html=1;exitX=0.5;exitY=1;exitDx=0;exitDy=0;entryX=0.25;entryY=1;entryDx=0;entryDy=0;endArrow=none;startFill=0;" edge="1" parent="1" source="Ebmh9Xk1geTlfbSQMeQ6-160" target="Ebmh9Xk1geTlfbSQMeQ6-155">
          <mxGeometry relative="1" as="geometry" />
        </mxCell>
        <mxCell id="Ebmh9Xk1geTlfbSQMeQ6-160" value="评论时间" style="ellipse;whiteSpace=wrap;html=1;" vertex="1" parent="1">
          <mxGeometry x="-30" y="529.54" width="60" height="30" as="geometry" />
        </mxCell>
        <mxCell id="Ebmh9Xk1geTlfbSQMeQ6-163" value="评论内容" style="ellipse;whiteSpace=wrap;html=1;" vertex="1" parent="1">
          <mxGeometry x="50" y="559.54" width="60" height="30" as="geometry" />
        </mxCell>
        <mxCell id="Ebmh9Xk1geTlfbSQMeQ6-164" value="原贴id" style="ellipse;whiteSpace=wrap;html=1;" vertex="1" parent="1">
          <mxGeometry x="120" y="569.54" width="60" height="30" as="geometry" />
        </mxCell>
        <mxCell id="Ebmh9Xk1geTlfbSQMeQ6-165" style="rounded=0;orthogonalLoop=1;jettySize=auto;html=1;exitX=1;exitY=1;exitDx=0;exitDy=0;entryX=0;entryY=0;entryDx=0;entryDy=0;endArrow=none;startFill=0;" edge="1" parent="1" source="Ebmh9Xk1geTlfbSQMeQ6-158" target="Ebmh9Xk1geTlfbSQMeQ6-155">
          <mxGeometry relative="1" as="geometry" />
        </mxCell>
        <mxCell id="Ebmh9Xk1geTlfbSQMeQ6-168" style="rounded=0;orthogonalLoop=1;jettySize=auto;html=1;exitX=0.5;exitY=0;exitDx=0;exitDy=0;entryX=0.75;entryY=1;entryDx=0;entryDy=0;endArrow=none;startFill=0;" edge="1" parent="1" source="Ebmh9Xk1geTlfbSQMeQ6-164" target="Ebmh9Xk1geTlfbSQMeQ6-155">
          <mxGeometry relative="1" as="geometry" />
        </mxCell>
        <mxCell id="Ebmh9Xk1geTlfbSQMeQ6-169" style="rounded=0;orthogonalLoop=1;jettySize=auto;html=1;exitX=0.5;exitY=0;exitDx=0;exitDy=0;entryX=0.5;entryY=1;entryDx=0;entryDy=0;endArrow=none;startFill=0;" edge="1" parent="1" source="Ebmh9Xk1geTlfbSQMeQ6-163" target="Ebmh9Xk1geTlfbSQMeQ6-155">
          <mxGeometry relative="1" as="geometry" />
        </mxCell>
        <mxCell id="Ebmh9Xk1geTlfbSQMeQ6-177" style="rounded=0;orthogonalLoop=1;jettySize=auto;html=1;exitX=1;exitY=0.5;exitDx=0;exitDy=0;entryX=0;entryY=0.5;entryDx=0;entryDy=0;endArrow=none;startFill=0;" edge="1" parent="1" source="Ebmh9Xk1geTlfbSQMeQ6-172" target="Ebmh9Xk1geTlfbSQMeQ6-128">
          <mxGeometry relative="1" as="geometry" />
        </mxCell>
        <mxCell id="Ebmh9Xk1geTlfbSQMeQ6-181" value="1" style="edgeLabel;html=1;align=center;verticalAlign=middle;resizable=0;points=[];" vertex="1" connectable="0" parent="Ebmh9Xk1geTlfbSQMeQ6-177">
          <mxGeometry x="-0.2243" y="1" relative="1" as="geometry">
            <mxPoint as="offset" />
          </mxGeometry>
        </mxCell>
        <mxCell id="Ebmh9Xk1geTlfbSQMeQ6-178" style="rounded=0;orthogonalLoop=1;jettySize=auto;html=1;exitX=0;exitY=0.5;exitDx=0;exitDy=0;entryX=1;entryY=0.5;entryDx=0;entryDy=0;endArrow=none;startFill=0;" edge="1" parent="1" source="Ebmh9Xk1geTlfbSQMeQ6-172" target="Ebmh9Xk1geTlfbSQMeQ6-155">
          <mxGeometry relative="1" as="geometry" />
        </mxCell>
        <mxCell id="Ebmh9Xk1geTlfbSQMeQ6-182" value="N" style="edgeLabel;html=1;align=center;verticalAlign=middle;resizable=0;points=[];" vertex="1" connectable="0" parent="Ebmh9Xk1geTlfbSQMeQ6-178">
          <mxGeometry x="-0.3625" y="1" relative="1" as="geometry">
            <mxPoint x="1" as="offset" />
          </mxGeometry>
        </mxCell>
        <mxCell id="Ebmh9Xk1geTlfbSQMeQ6-172" value="回复" style="rhombus;whiteSpace=wrap;html=1;" vertex="1" parent="1">
          <mxGeometry x="230" y="474.31" width="50" height="50" as="geometry" />
        </mxCell>
        <mxCell id="Ebmh9Xk1geTlfbSQMeQ6-175" style="rounded=0;orthogonalLoop=1;jettySize=auto;html=1;exitX=1;exitY=0;exitDx=0;exitDy=0;entryX=0;entryY=1;entryDx=0;entryDy=0;endArrow=none;startFill=0;" edge="1" parent="1" source="Ebmh9Xk1geTlfbSQMeQ6-173" target="Ebmh9Xk1geTlfbSQMeQ6-1">
          <mxGeometry relative="1" as="geometry" />
        </mxCell>
        <mxCell id="Ebmh9Xk1geTlfbSQMeQ6-179" value="N" style="edgeLabel;html=1;align=center;verticalAlign=middle;resizable=0;points=[];" vertex="1" connectable="0" parent="Ebmh9Xk1geTlfbSQMeQ6-175">
          <mxGeometry x="-0.5401" y="2" relative="1" as="geometry">
            <mxPoint y="-1" as="offset" />
          </mxGeometry>
        </mxCell>
        <mxCell id="Ebmh9Xk1geTlfbSQMeQ6-176" style="rounded=0;orthogonalLoop=1;jettySize=auto;html=1;exitX=0;exitY=1;exitDx=0;exitDy=0;entryX=0.5;entryY=0;entryDx=0;entryDy=0;endArrow=none;startFill=0;" edge="1" parent="1" source="Ebmh9Xk1geTlfbSQMeQ6-173" target="Ebmh9Xk1geTlfbSQMeQ6-155">
          <mxGeometry relative="1" as="geometry" />
        </mxCell>
        <mxCell id="Ebmh9Xk1geTlfbSQMeQ6-180" value="M" style="edgeLabel;html=1;align=center;verticalAlign=middle;resizable=0;points=[];" vertex="1" connectable="0" parent="Ebmh9Xk1geTlfbSQMeQ6-176">
          <mxGeometry x="0.0493" relative="1" as="geometry">
            <mxPoint as="offset" />
          </mxGeometry>
        </mxCell>
        <mxCell id="Ebmh9Xk1geTlfbSQMeQ6-173" value="归属" style="rhombus;whiteSpace=wrap;html=1;" vertex="1" parent="1">
          <mxGeometry x="190" y="409.54" width="50" height="50" as="geometry" />
        </mxCell>
      </root>
    </mxGraphModel>
  </diagram>
</mxfile>
